<svg width="16" height="15" viewBox="0 0 16 15" fill="none" xmlns="http://www.w3.org/2000/svg">
<path d="M14.25 0.28125H1.75C1.29479 0.283305 0.858814 0.465047 0.536931 0.786931C0.215047 1.10881 0.0333051 1.54479 0.03125 2V10.75C0.0333051 11.2052 0.215047 11.6412 0.536931 11.9631C0.858814 12.285 1.29479 12.4667 1.75 12.4688H7.53125V14.0312H5.5C5.37568 14.0312 5.25645 14.0806 5.16854 14.1685C5.08064 14.2565 5.03125 14.3757 5.03125 14.5C5.03125 14.6243 5.08064 14.7435 5.16854 14.8315C5.25645 14.9194 5.37568 14.9688 5.5 14.9688H10.5C10.6243 14.9688 10.7435 14.9194 10.8315 14.8315C10.9194 14.7435 10.9688 14.6243 10.9688 14.5C10.9688 14.3757 10.9194 14.2565 10.8315 14.1685C10.7435 14.0806 10.6243 14.0312 10.5 14.0312H8.46875V12.4688H14.25C14.7052 12.4667 15.1412 12.285 15.4631 11.9631C15.785 11.6412 15.9667 11.2052 15.9688 10.75V2C15.9667 1.54479 15.785 1.10881 15.4631 0.786931C15.1412 0.465047 14.7052 0.283305 14.25 0.28125ZM1.75 1.21875H14.25C14.4572 1.21875 14.6559 1.30106 14.8024 1.44757C14.9489 1.59409 15.0312 1.7928 15.0312 2V8.40625H0.96875V2C0.96875 1.7928 1.05106 1.59409 1.19757 1.44757C1.34409 1.30106 1.5428 1.21875 1.75 1.21875ZM14.25 11.5312H1.75C1.5428 11.5312 1.34409 11.4489 1.19757 11.3024C1.05106 11.1559 0.96875 10.9572 0.96875 10.75V9.34375H15.0312V10.75C15.0312 10.9572 14.9489 11.1559 14.8024 11.3024C14.6559 11.4489 14.4572 11.5312 14.25 11.5312Z" fill="black"/>
</svg>
