<svg width="12" height="18" viewBox="0 0 12 18" fill="none" xmlns="http://www.w3.org/2000/svg">
<path d="M9.75 0.40625H2.25C1.79479 0.408305 1.35881 0.590047 1.03693 0.911931C0.715047 1.23381 0.533305 1.66979 0.53125 2.125V15.875C0.533305 16.3302 0.715047 16.7662 1.03693 17.0881C1.35881 17.41 1.79479 17.5917 2.25 17.5938H9.75C10.2052 17.5917 10.6412 17.41 10.9631 17.0881C11.285 16.7662 11.4667 16.3302 11.4688 15.875V2.125C11.4667 1.66979 11.285 1.23381 10.9631 0.911931C10.6412 0.590047 10.2052 0.408305 9.75 0.40625ZM10.5312 15.875C10.5312 16.0822 10.4489 16.2809 10.3024 16.4274C10.1559 16.5739 9.9572 16.6562 9.75 16.6562H2.25C2.0428 16.6562 1.84409 16.5739 1.69757 16.4274C1.55106 16.2809 1.46875 16.0822 1.46875 15.875V2.125C1.46875 1.9178 1.55106 1.71909 1.69757 1.57257C1.84409 1.42606 2.0428 1.34375 2.25 1.34375H9.75C9.9572 1.34375 10.1559 1.42606 10.3024 1.57257C10.4489 1.71909 10.5312 1.9178 10.5312 2.125V15.875ZM6.78125 3.6875C6.78125 3.84202 6.73543 3.99306 6.64959 4.12154C6.56374 4.25002 6.44173 4.35015 6.29897 4.40928C6.15622 4.46841 5.99913 4.48388 5.84759 4.45374C5.69604 4.42359 5.55683 4.34919 5.44757 4.23993C5.33831 4.13067 5.26391 3.99146 5.23376 3.83991C5.20362 3.68837 5.21909 3.53128 5.27822 3.38853C5.33735 3.24577 5.43748 3.12376 5.56596 3.03791C5.69444 2.95207 5.84548 2.90625 6 2.90625C6.2072 2.90625 6.40591 2.98856 6.55243 3.13507C6.69894 3.28159 6.78125 3.4803 6.78125 3.6875Z" fill="black"/>
</svg>
